# Blender v2.77 (sub 0) OBJ File: 'Target2.blend'
# www.blender.org
mtllib Target2.mtl
o Cylinder
v 0.100000 1.398835 -1.000000
v -0.100000 1.398835 -1.000000
v 0.100000 1.593925 -0.980785
v -0.100000 1.593925 -0.980785
v 0.100000 1.781518 -0.923880
v -0.100000 1.781518 -0.923880
v 0.100000 1.954405 -0.831470
v -0.100000 1.954405 -0.831470
v 0.100000 2.105942 -0.707107
v -0.100000 2.105942 -0.707107
v 0.100000 2.230304 -0.555570
v -0.100000 2.230304 -0.555570
v 0.100000 2.322714 -0.382683
v -0.100000 2.322714 -0.382683
v 0.100000 2.379620 -0.195090
v -0.100000 2.379620 -0.195090
v 0.100000 2.398835 -0.000000
v -0.100000 2.398835 -0.000000
v 0.100000 2.379620 0.195090
v -0.100000 2.379620 0.195090
v 0.100000 2.322714 0.382683
v -0.100000 2.322714 0.382683
v 0.100000 2.230304 0.555570
v -0.100000 2.230304 0.555570
v 0.100000 2.105942 0.707107
v -0.100000 2.105942 0.707107
v 0.100000 1.954405 0.831470
v -0.100000 1.954405 0.831470
v 0.100000 1.781518 0.923880
v -0.100000 1.781518 0.923880
v 0.100000 1.593925 0.980785
v -0.100000 1.593925 0.980785
v 0.100000 1.398834 1.000000
v -0.100000 1.398834 1.000000
v 0.100000 1.203744 0.980785
v -0.100000 1.203744 0.980785
v 0.100000 1.016151 0.923879
v -0.100000 1.016151 0.923879
v 0.100000 0.843264 0.831469
v -0.100000 0.843264 0.831469
v 0.100000 0.691727 0.707106
v -0.100000 0.691727 0.707106
v 0.100000 0.567365 0.555570
v -0.100000 0.567365 0.555570
v 0.100000 0.474955 0.382683
v -0.100000 0.474955 0.382683
v 0.100000 0.418049 0.195089
v -0.100000 0.418049 0.195089
v 0.100000 0.398835 -0.000001
v -0.100000 0.398835 -0.000001
v 0.100000 0.418050 -0.195091
v -0.100000 0.418050 -0.195091
v 0.100000 0.474956 -0.382684
v -0.100000 0.474956 -0.382684
v 0.100000 0.567366 -0.555571
v -0.100000 0.567366 -0.555571
v 0.100000 0.691729 -0.707108
v -0.100000 0.691729 -0.707108
v 0.100000 0.843266 -0.831470
v -0.100000 0.843266 -0.831470
v 0.100000 1.016153 -0.923880
v -0.100000 1.016153 -0.923880
v 0.100000 1.203746 -0.980786
v -0.100000 1.203746 -0.980786
vt 0.8892 0.5622
vt 0.9130 0.5863
vt 0.8892 0.5863
vt 0.8892 0.6090
vt 0.9130 0.6090
vt 0.8892 0.6294
vt 0.9130 0.6468
vt 0.8892 0.6468
vt 0.8830 0.3663
vt 0.9068 0.3837
vt 0.8830 0.3837
vt 0.8830 0.4041
vt 0.9068 0.4268
vt 0.8830 0.4268
vt 0.8830 0.4509
vt 0.9068 0.4509
vt 0.8830 0.4755
vt 0.9068 0.4996
vt 0.8830 0.4996
vt 0.8830 0.5223
vt 0.9068 0.5223
vt 0.8830 0.5427
vt 0.9068 0.5600
vt 0.8830 0.5600
vt 0.9473 0.6318
vt 0.9234 0.6114
vt 0.9473 0.6114
vt 0.9473 0.5887
vt 0.9234 0.5646
vt 0.9473 0.5646
vt 0.9473 0.5401
vt 0.9234 0.5401
vt 0.9473 0.5160
vt 0.9234 0.4933
vt 0.9473 0.4933
vt 0.9473 0.4729
vt 0.9234 0.4729
vt 0.9473 0.4555
vt 0.9234 0.4555
vt 0.9473 0.4418
vt 0.9234 0.4418
vt 0.9473 0.4324
vt 0.9234 0.4324
vt 0.9473 0.4276
vt 0.9130 0.4252
vt 0.8892 0.4300
vt 0.8892 0.4252
vt 0.9130 0.4300
vt 0.8892 0.4394
vt 0.9130 0.4394
vt 0.8892 0.4531
vt 0.9130 0.4704
vt 0.8892 0.4704
vt 0.8892 0.4908
vt 0.9130 0.4908
vt 0.8892 0.5135
vt 0.7885 0.1295
vt 0.9544 0.4559
vt 0.5417 0.9847
vt 0.9130 0.5376
vt 0.8892 0.5376
vt 0.9130 0.5622
vt 0.2064 0.1272
vt 0.8533 0.1942
vt 0.1426 0.8074
vt 0.9130 0.6294
vt 0.9068 0.3663
vt 0.9068 0.4041
vt 0.9068 0.4755
vt 0.9068 0.5427
vt 0.9234 0.6318
vt 0.9234 0.5887
vt 0.9234 0.5160
vt 0.9234 0.4276
vt 0.9130 0.4531
vt 0.9130 0.5135
vt 0.4515 0.9847
vt 0.3631 0.9662
vt 0.2798 0.9299
vt 0.2048 0.8772
vt 0.1410 0.8102
vt 0.0909 0.7313
vt 0.0564 0.6437
vt 0.0388 0.5508
vt 0.0388 0.4559
vt 0.0564 0.3630
vt 0.0909 0.2754
vt 0.1410 0.1965
vt 0.2048 0.1295
vt 0.4515 0.0221
vt 0.2798 0.0768
vt 0.3631 0.0406
vt 0.5417 0.0221
vt 0.6302 0.0406
vt 0.7135 0.0768
vt 0.8522 0.1965
vt 0.9023 0.2754
vt 0.9368 0.3630
vt 0.9544 0.5508
vt 0.9368 0.6437
vt 0.9023 0.7313
vt 0.8522 0.8102
vt 0.7885 0.8772
vt 0.7135 0.9299
vt 0.6302 0.9662
vt 0.7896 0.8743
vt 0.7147 0.9270
vt 0.6314 0.9632
vt 0.5431 0.9817
vt 0.4529 0.9817
vt 0.3646 0.9632
vt 0.2813 0.9270
vt 0.2064 0.8743
vt 0.0926 0.7286
vt 0.0405 0.4534
vt 0.0581 0.6410
vt 0.0405 0.5481
vt 0.0581 0.3605
vt 0.0926 0.2729
vt 0.1426 0.1942
vt 0.2813 0.0745
vt 0.3646 0.0383
vt 0.4529 0.0198
vt 0.5431 0.0198
vt 0.6314 0.0383
vt 0.7147 0.0745
vt 0.7896 0.1272
vt 0.9034 0.2729
vt 0.9379 0.3605
vt 0.9555 0.4534
vt 0.9555 0.5481
vt 0.9379 0.6410
vt 0.9034 0.7286
vt 0.8533 0.8074
vn 0.0000 0.0980 -0.9952
vn 0.0000 0.2903 -0.9569
vn 0.0000 0.4714 -0.8819
vn 0.0000 0.6344 -0.7730
vn 0.0000 0.7730 -0.6344
vn 0.0000 0.8819 -0.4714
vn 0.0000 0.9569 -0.2903
vn 0.0000 0.9952 -0.0980
vn 0.0000 0.9952 0.0980
vn 0.0000 0.9569 0.2903
vn 0.0000 0.8819 0.4714
vn 0.0000 0.7730 0.6344
vn 0.0000 0.6344 0.7730
vn 0.0000 0.4714 0.8819
vn 0.0000 0.2903 0.9569
vn 0.0000 0.0980 0.9952
vn 0.0000 -0.0980 0.9952
vn 0.0000 -0.2903 0.9569
vn 0.0000 -0.4714 0.8819
vn 0.0000 -0.6344 0.7730
vn 0.0000 -0.7730 0.6344
vn 0.0000 -0.8819 0.4714
vn 0.0000 -0.9569 0.2903
vn 0.0000 -0.9952 0.0980
vn 0.0000 -0.9952 -0.0980
vn 0.0000 -0.9569 -0.2903
vn 0.0000 -0.8819 -0.4714
vn 0.0000 -0.7730 -0.6344
vn 0.0000 -0.6344 -0.7730
vn 0.0000 -0.4714 -0.8819
vn -1.0000 0.0000 -0.0000
vn 0.0000 -0.2903 -0.9569
vn 0.0000 -0.0980 -0.9952
vn 1.0000 0.0000 -0.0000
usemtl Material
s off
f 1/1/1 4/2/1 3/3/1
f 4/2/2 5/4/2 3/3/2
f 6/5/3 7/6/3 5/4/3
f 7/6/4 10/7/4 9/8/4
f 9/9/5 12/10/5 11/11/5
f 12/10/6 13/12/6 11/11/6
f 13/12/7 16/13/7 15/14/7
f 16/13/8 17/15/8 15/14/8
f 18/16/9 19/17/9 17/15/9
f 19/17/10 22/18/10 21/19/10
f 22/18/11 23/20/11 21/19/11
f 24/21/12 25/22/12 23/20/12
f 25/22/13 28/23/13 27/24/13
f 27/25/14 30/26/14 29/27/14
f 30/26/15 31/28/15 29/27/15
f 31/28/16 34/29/16 33/30/16
f 34/29/17 35/31/17 33/30/17
f 36/32/18 37/33/18 35/31/18
f 37/33/19 40/34/19 39/35/19
f 40/34/20 41/36/20 39/35/20
f 42/37/21 43/38/21 41/36/21
f 44/39/22 45/40/22 43/38/22
f 46/41/23 47/42/23 45/40/23
f 48/43/24 49/44/24 47/42/24
f 50/45/25 51/46/25 49/47/25
f 52/48/26 53/49/26 51/46/26
f 54/50/27 55/51/27 53/49/27
f 55/51/28 58/52/28 57/53/28
f 58/52/29 59/54/29 57/53/29
f 60/55/30 61/56/30 59/54/30
f 30/57/31 22/58/31 6/59/31
f 61/56/32 64/60/32 63/61/32
f 63/61/33 2/62/33 1/1/33
f 31/63/34 47/64/34 15/65/34
f 1/1/1 2/62/1 4/2/1
f 4/2/2 6/5/2 5/4/2
f 6/5/3 8/66/3 7/6/3
f 7/6/4 8/66/4 10/7/4
f 9/9/5 10/67/5 12/10/5
f 12/10/6 14/68/6 13/12/6
f 13/12/7 14/68/7 16/13/7
f 16/13/8 18/16/8 17/15/8
f 18/16/9 20/69/9 19/17/9
f 19/17/10 20/69/10 22/18/10
f 22/18/11 24/21/11 23/20/11
f 24/21/12 26/70/12 25/22/12
f 25/22/13 26/70/13 28/23/13
f 27/25/14 28/71/14 30/26/14
f 30/26/15 32/72/15 31/28/15
f 31/28/16 32/72/16 34/29/16
f 34/29/17 36/32/17 35/31/17
f 36/32/18 38/73/18 37/33/18
f 37/33/19 38/73/19 40/34/19
f 40/34/20 42/37/20 41/36/20
f 42/37/21 44/39/21 43/38/21
f 44/39/22 46/41/22 45/40/22
f 46/41/23 48/43/23 47/42/23
f 48/43/24 50/74/24 49/44/24
f 50/45/25 52/48/25 51/46/25
f 52/48/26 54/50/26 53/49/26
f 54/50/27 56/75/27 55/51/27
f 55/51/28 56/75/28 58/52/28
f 58/52/29 60/55/29 59/54/29
f 60/55/30 62/76/30 61/56/30
f 6/59/31 4/77/31 2/78/31
f 2/78/31 64/79/31 62/80/31
f 62/80/31 60/81/31 58/82/31
f 58/82/31 56/83/31 54/84/31
f 54/84/31 52/85/31 50/86/31
f 50/86/31 48/87/31 54/84/31
f 46/88/31 44/89/31 38/90/31
f 42/91/31 40/92/31 38/90/31
f 38/90/31 36/93/31 34/94/31
f 34/94/31 32/95/31 38/90/31
f 30/57/31 28/96/31 26/97/31
f 26/97/31 24/98/31 30/57/31
f 22/58/31 20/99/31 18/100/31
f 18/100/31 16/101/31 14/102/31
f 14/102/31 12/103/31 6/59/31
f 10/104/31 8/105/31 6/59/31
f 6/59/31 2/78/31 54/84/31
f 62/80/31 58/82/31 54/84/31
f 54/84/31 48/87/31 46/88/31
f 44/89/31 42/91/31 38/90/31
f 38/90/31 32/95/31 30/57/31
f 30/57/31 24/98/31 22/58/31
f 22/58/31 18/100/31 14/102/31
f 12/103/31 10/104/31 6/59/31
f 2/78/31 62/80/31 54/84/31
f 54/84/31 46/88/31 38/90/31
f 38/90/31 30/57/31 6/59/31
f 22/58/31 14/102/31 6/59/31
f 6/59/31 54/84/31 38/90/31
f 61/56/32 62/76/32 64/60/32
f 63/61/33 64/60/33 2/62/33
f 63/106/34 1/107/34 3/108/34
f 3/108/34 5/109/34 7/110/34
f 7/110/34 9/111/34 11/112/34
f 11/112/34 13/113/34 15/65/34
f 15/65/34 17/114/34 23/115/34
f 19/116/34 21/117/34 23/115/34
f 23/115/34 25/118/34 27/119/34
f 27/119/34 29/120/34 31/63/34
f 31/63/34 33/121/34 35/122/34
f 35/122/34 37/123/34 39/124/34
f 39/124/34 41/125/34 43/126/34
f 43/126/34 45/127/34 47/64/34
f 47/64/34 49/128/34 51/129/34
f 51/129/34 53/130/34 55/131/34
f 55/131/34 57/132/34 59/133/34
f 59/133/34 61/134/34 55/131/34
f 63/106/34 3/108/34 15/65/34
f 7/110/34 11/112/34 15/65/34
f 17/114/34 19/116/34 23/115/34
f 23/115/34 27/119/34 31/63/34
f 31/63/34 35/122/34 47/64/34
f 39/124/34 43/126/34 47/64/34
f 47/64/34 51/129/34 63/106/34
f 55/131/34 61/134/34 63/106/34
f 3/108/34 7/110/34 15/65/34
f 15/65/34 23/115/34 31/63/34
f 35/122/34 39/124/34 47/64/34
f 51/129/34 55/131/34 63/106/34
f 63/106/34 15/65/34 47/64/34
